<?xml version="1.0" encoding="UTF-8"?><svg id="Layer_1" xmlns="http://www.w3.org/2000/svg" viewBox="0 0 341.31 271.73"><defs><style>.cls-1{fill:#fff;}</style></defs><path class="cls-1" d="M0,258.93V90.04c0-13.92,8.5-26.5,21.45-31.68L164.31,1.22c4.05-1.63,8.64-1.63,12.69,0l142.87,57.14c12.96,5.17,21.44,17.76,21.44,31.68v168.89c0,7.09-5.71,12.8-12.8,12.8h-25.6c-7.09,0-12.8-5.71-12.8-12.8V117.66c0-8.96-7.63-17.07-17.07-17.07H68.26c-9.44,0-17.07,8.11-17.07,17.07v141.27c0,7.09-5.73,12.8-12.8,12.8H12.8c-7.07,0-12.8-5.71-12.8-12.8ZM68.26,130.46c0-6.61,5.71-12.8,12.8-12.8h76.79c7.09,0,12.8,6.19,12.8,12.8v43.14c0,7.09-5.71,12.8-12.8,12.8H81.06c-7.09,0-12.8-5.71-12.8-12.8v-43.14Zm89.59,73.01c7.09,0,12.8,5.71,12.8,12.8v42.66c0,7.09-5.71,12.8-12.8,12.8H81.06c-7.09,0-12.8-5.71-12.8-12.8v-42.66c0-7.09,5.71-12.8,12.8-12.8h76.79Zm102.39,0c7.09,0,12.8,5.71,12.8,12.8v42.66c0,7.09-5.71,12.8-12.8,12.8h-59.73c-7.09,0-12.8-5.71-12.8-12.8v-42.66c0-7.09,5.71-12.8,12.8-12.8h59.73Z"/></svg>